# xmcd
#
# Track frame offsets:
#	183
#	12098
#	25418
#	37410
#	52410
#	63293
#	75458
#	90078
#	100165
#	114913
#	126790
#	139678
#	154393
#	166288
#	177703
#	188303
#	201988
#	216690
#	228983
#	241820
#	252065
#	266340
#	276638
#
# Disc length: 3838 seconds
#
# Revision: 0
# Processed by: cddbd v1.4PL0 Copyright (c) Steve Scherf et al.
# Submitted via: dBpowerAMP V4.0
#
DISCID=460efc17
DTITLE=Dinah Washington - The Queen Of Blues
DYEAR=1900
DGENRE=Blues
TTITLE0=New Blowtop Blues
TTITLE1=Pillow Blues
TTITLE2=No Cavier
TTITLE3=Feel Like I Wanna Cry
TTITLE4=Go Pretty Daddy
TTITLE5=If You Don't Think I'm Leavin
TTITLE6=Am I Blue
TTITLE7=Fast Movin' Mama
TTITLE8=Gambler's Blues
TTITLE9=I Ain't Goin To Cry No More
TTITLE10=Trouble In Mind
TTITLE11=Record Ban Blues
TTITLE12=Surprise Party
TTITLE13=Half As Much
TTITLE14=Shukin' And Jivin'
TTITLE15=Please Send Me Someone To Love
TTITLE16=Resolution Blues
TTITLE17=Juice Head Man Of Mine
TTITLE18=Baby Get Lost
TTITLE19=Never, Never
TTITLE20=Long John Blues
TTITLE21=Mean And Evil
TTITLE22=My Man's An Undertaker
EXTD=
EXTT0=
EXTT1=
EXTT2=
EXTT3=
EXTT4=
EXTT5=
EXTT6=
EXTT7=
EXTT8=
EXTT9=
EXTT10=
EXTT11=
EXTT12=
EXTT13=
EXTT14=
EXTT15=
EXTT16=
EXTT17=
EXTT18=
EXTT19=
EXTT20=
EXTT21=
EXTT22=
PLAYORDER=
